<mxfile host="app.diagrams.net" modified="2021-06-02T15:10:38.888Z" agent="5.0 (Windows NT 10.0; Win64; x64) AppleWebKit/537.36 (KHTML, like Gecko) Chrome/90.0.4430.212 Safari/537.36" etag="DuTWftSTZ5wXVVbY_buw" version="14.6.13" type="github">
  <diagram id="z6lxiCS5bTPtnJwJAkri" name="Page-1">
    <mxGraphModel dx="1422" dy="756" grid="0" gridSize="10" guides="1" tooltips="1" connect="1" arrows="1" fold="1" page="0" pageScale="1" pageWidth="827" pageHeight="1169" math="0" shadow="0">
      <root>
        <mxCell id="0" />
        <mxCell id="1" parent="0" />
        <mxCell id="Acn9G3id7ki6_PeFdA2S-1" value="" style="ellipse;whiteSpace=wrap;html=1;aspect=fixed;fillColor=#dae8fc;strokeColor=#6c8ebf;" parent="1" vertex="1">
          <mxGeometry x="170" y="130" width="80" height="80" as="geometry" />
        </mxCell>
        <mxCell id="Acn9G3id7ki6_PeFdA2S-2" value="" style="ellipse;whiteSpace=wrap;html=1;aspect=fixed;fillColor=#d5e8d4;strokeColor=#82b366;" parent="1" vertex="1">
          <mxGeometry x="170" y="370" width="80" height="80" as="geometry" />
        </mxCell>
        <mxCell id="Acn9G3id7ki6_PeFdA2S-3" value="" style="ellipse;whiteSpace=wrap;html=1;aspect=fixed;fillColor=#dae8fc;strokeColor=#6c8ebf;" parent="1" vertex="1">
          <mxGeometry x="440" y="130" width="80" height="80" as="geometry" />
        </mxCell>
        <mxCell id="Acn9G3id7ki6_PeFdA2S-4" value="" style="ellipse;whiteSpace=wrap;html=1;aspect=fixed;fillColor=#d5e8d4;strokeColor=#82b366;" parent="1" vertex="1">
          <mxGeometry x="440" y="370" width="80" height="80" as="geometry" />
        </mxCell>
        <mxCell id="1Ixk-NZFv9qU1EKzr9T6-3" value="" style="shape=image;html=1;verticalAlign=top;verticalLabelPosition=bottom;labelBackgroundColor=#ffffff;imageAspect=0;aspect=fixed;image=https://cdn4.iconfinder.com/data/icons/iconsimple-logotypes/512/android-128.png" vertex="1" parent="1">
          <mxGeometry x="456" y="146" width="48" height="48" as="geometry" />
        </mxCell>
        <mxCell id="1Ixk-NZFv9qU1EKzr9T6-4" value="" style="ellipse;whiteSpace=wrap;html=1;aspect=fixed;" vertex="1" parent="1">
          <mxGeometry x="310" y="250" width="80" height="80" as="geometry" />
        </mxCell>
        <mxCell id="1Ixk-NZFv9qU1EKzr9T6-5" value="" style="shape=flexArrow;endArrow=classic;startArrow=classic;html=1;" edge="1" parent="1" source="1Ixk-NZFv9qU1EKzr9T6-4" target="Acn9G3id7ki6_PeFdA2S-3">
          <mxGeometry width="100" height="100" relative="1" as="geometry">
            <mxPoint x="360" y="380" as="sourcePoint" />
            <mxPoint x="460" y="200" as="targetPoint" />
          </mxGeometry>
        </mxCell>
        <mxCell id="1Ixk-NZFv9qU1EKzr9T6-6" value="" style="shape=flexArrow;endArrow=classic;startArrow=classic;html=1;" edge="1" parent="1" source="1Ixk-NZFv9qU1EKzr9T6-4" target="Acn9G3id7ki6_PeFdA2S-4">
          <mxGeometry width="100" height="100" relative="1" as="geometry">
            <mxPoint x="360" y="300" as="sourcePoint" />
            <mxPoint x="460" y="280" as="targetPoint" />
          </mxGeometry>
        </mxCell>
        <mxCell id="1Ixk-NZFv9qU1EKzr9T6-7" value="" style="shape=flexArrow;endArrow=classic;startArrow=classic;html=1;" edge="1" parent="1" source="Acn9G3id7ki6_PeFdA2S-2" target="1Ixk-NZFv9qU1EKzr9T6-4">
          <mxGeometry width="100" height="100" relative="1" as="geometry">
            <mxPoint x="360" y="380" as="sourcePoint" />
            <mxPoint x="460" y="280" as="targetPoint" />
          </mxGeometry>
        </mxCell>
        <mxCell id="1Ixk-NZFv9qU1EKzr9T6-8" value="" style="shape=flexArrow;endArrow=classic;startArrow=classic;html=1;" edge="1" parent="1" source="1Ixk-NZFv9qU1EKzr9T6-4" target="Acn9G3id7ki6_PeFdA2S-1">
          <mxGeometry width="100" height="100" relative="1" as="geometry">
            <mxPoint x="360" y="380" as="sourcePoint" />
            <mxPoint x="220" y="250" as="targetPoint" />
          </mxGeometry>
        </mxCell>
        <mxCell id="1Ixk-NZFv9qU1EKzr9T6-9" value="" style="shape=flexArrow;endArrow=classic;startArrow=classic;html=1;fillColor=#d5e8d4;strokeColor=#82b366;" edge="1" parent="1" source="Acn9G3id7ki6_PeFdA2S-2" target="Acn9G3id7ki6_PeFdA2S-1">
          <mxGeometry width="100" height="100" relative="1" as="geometry">
            <mxPoint x="360" y="380" as="sourcePoint" />
            <mxPoint x="170" y="270" as="targetPoint" />
          </mxGeometry>
        </mxCell>
        <mxCell id="1Ixk-NZFv9qU1EKzr9T6-10" value="" style="shape=flexArrow;endArrow=classic;startArrow=classic;html=1;fillColor=#d5e8d4;strokeColor=#82b366;" edge="1" parent="1" source="Acn9G3id7ki6_PeFdA2S-4" target="Acn9G3id7ki6_PeFdA2S-3">
          <mxGeometry width="100" height="100" relative="1" as="geometry">
            <mxPoint x="360" y="380" as="sourcePoint" />
            <mxPoint x="460" y="280" as="targetPoint" />
          </mxGeometry>
        </mxCell>
        <mxCell id="1Ixk-NZFv9qU1EKzr9T6-12" value="" style="shape=image;html=1;verticalAlign=top;verticalLabelPosition=bottom;labelBackgroundColor=#ffffff;imageAspect=0;aspect=fixed;image=https://cdn3.iconfinder.com/data/icons/geek-3/24/R2D2_star_wars_droid_robot-128.png" vertex="1" parent="1">
          <mxGeometry x="186" y="146" width="48" height="48" as="geometry" />
        </mxCell>
        <mxCell id="1Ixk-NZFv9qU1EKzr9T6-13" value="" style="ellipse;whiteSpace=wrap;html=1;aspect=fixed;fillColor=#d5e8d4;strokeColor=#82b366;" vertex="1" parent="1">
          <mxGeometry x="234" y="480" width="80" height="80" as="geometry" />
        </mxCell>
        <mxCell id="1Ixk-NZFv9qU1EKzr9T6-14" value="" style="ellipse;whiteSpace=wrap;html=1;aspect=fixed;fillColor=#d5e8d4;strokeColor=#82b366;" vertex="1" parent="1">
          <mxGeometry x="376" y="480" width="80" height="80" as="geometry" />
        </mxCell>
        <mxCell id="1Ixk-NZFv9qU1EKzr9T6-15" value="" style="shape=flexArrow;endArrow=classic;startArrow=classic;html=1;fillColor=#d5e8d4;strokeColor=#82b366;" edge="1" parent="1" source="1Ixk-NZFv9qU1EKzr9T6-13" target="Acn9G3id7ki6_PeFdA2S-2">
          <mxGeometry width="100" height="100" relative="1" as="geometry">
            <mxPoint x="360" y="380" as="sourcePoint" />
            <mxPoint x="460" y="280" as="targetPoint" />
          </mxGeometry>
        </mxCell>
        <mxCell id="1Ixk-NZFv9qU1EKzr9T6-16" value="" style="shape=flexArrow;endArrow=classic;startArrow=classic;html=1;fillColor=#d5e8d4;strokeColor=#82b366;" edge="1" parent="1" source="1Ixk-NZFv9qU1EKzr9T6-14" target="Acn9G3id7ki6_PeFdA2S-4">
          <mxGeometry width="100" height="100" relative="1" as="geometry">
            <mxPoint x="360" y="380" as="sourcePoint" />
            <mxPoint x="460" y="280" as="targetPoint" />
          </mxGeometry>
        </mxCell>
        <mxCell id="1Ixk-NZFv9qU1EKzr9T6-17" value="" style="shape=flexArrow;endArrow=classic;startArrow=classic;html=1;fillColor=#d5e8d4;strokeColor=#82b366;" edge="1" parent="1" source="1Ixk-NZFv9qU1EKzr9T6-13" target="1Ixk-NZFv9qU1EKzr9T6-14">
          <mxGeometry width="100" height="100" relative="1" as="geometry">
            <mxPoint x="360" y="380" as="sourcePoint" />
            <mxPoint x="460" y="280" as="targetPoint" />
          </mxGeometry>
        </mxCell>
        <mxCell id="1Ixk-NZFv9qU1EKzr9T6-36" value="&lt;span style=&quot;font-size: 18px&quot;&gt;State 1&lt;/span&gt;" style="text;html=1;align=center;verticalAlign=middle;resizable=0;points=[];autosize=1;strokeColor=none;" vertex="1" parent="1">
          <mxGeometry x="303" y="97" width="67" height="20" as="geometry" />
        </mxCell>
        <mxCell id="1Ixk-NZFv9qU1EKzr9T6-40" value="&lt;font style=&quot;font-size: 16px&quot;&gt;Rest of the Map&lt;/font&gt;" style="ellipse;shape=cloud;whiteSpace=wrap;html=1;" vertex="1" parent="1">
          <mxGeometry x="241.5" y="599" width="190" height="117" as="geometry" />
        </mxCell>
        <mxCell id="1Ixk-NZFv9qU1EKzr9T6-41" value="" style="shape=flexArrow;endArrow=classic;startArrow=classic;html=1;" edge="1" parent="1" source="1Ixk-NZFv9qU1EKzr9T6-40" target="1Ixk-NZFv9qU1EKzr9T6-14">
          <mxGeometry width="100" height="100" relative="1" as="geometry">
            <mxPoint x="486" y="400" as="sourcePoint" />
            <mxPoint x="451" y="605" as="targetPoint" />
          </mxGeometry>
        </mxCell>
        <mxCell id="1Ixk-NZFv9qU1EKzr9T6-42" value="" style="ellipse;whiteSpace=wrap;html=1;aspect=fixed;fillColor=#dae8fc;strokeColor=#6c8ebf;" vertex="1" parent="1">
          <mxGeometry x="622" y="133.5" width="80" height="80" as="geometry" />
        </mxCell>
        <mxCell id="1Ixk-NZFv9qU1EKzr9T6-43" value="" style="ellipse;whiteSpace=wrap;html=1;aspect=fixed;fillColor=#d5e8d4;strokeColor=#82b366;" vertex="1" parent="1">
          <mxGeometry x="622" y="373.5" width="80" height="80" as="geometry" />
        </mxCell>
        <mxCell id="1Ixk-NZFv9qU1EKzr9T6-44" value="" style="ellipse;whiteSpace=wrap;html=1;aspect=fixed;fillColor=#dae8fc;strokeColor=#6c8ebf;" vertex="1" parent="1">
          <mxGeometry x="892" y="133.5" width="80" height="80" as="geometry" />
        </mxCell>
        <mxCell id="1Ixk-NZFv9qU1EKzr9T6-45" value="" style="ellipse;whiteSpace=wrap;html=1;aspect=fixed;fillColor=#d5e8d4;strokeColor=#82b366;" vertex="1" parent="1">
          <mxGeometry x="892" y="373.5" width="80" height="80" as="geometry" />
        </mxCell>
        <mxCell id="1Ixk-NZFv9qU1EKzr9T6-46" value="" style="shape=image;html=1;verticalAlign=top;verticalLabelPosition=bottom;labelBackgroundColor=#ffffff;imageAspect=0;aspect=fixed;image=https://cdn4.iconfinder.com/data/icons/iconsimple-logotypes/512/android-128.png" vertex="1" parent="1">
          <mxGeometry x="638" y="393" width="48" height="48" as="geometry" />
        </mxCell>
        <mxCell id="1Ixk-NZFv9qU1EKzr9T6-47" value="" style="ellipse;whiteSpace=wrap;html=1;aspect=fixed;" vertex="1" parent="1">
          <mxGeometry x="762" y="253.5" width="80" height="80" as="geometry" />
        </mxCell>
        <mxCell id="1Ixk-NZFv9qU1EKzr9T6-48" value="" style="shape=flexArrow;endArrow=classic;startArrow=classic;html=1;" edge="1" parent="1" source="1Ixk-NZFv9qU1EKzr9T6-47" target="1Ixk-NZFv9qU1EKzr9T6-44">
          <mxGeometry width="100" height="100" relative="1" as="geometry">
            <mxPoint x="812" y="383.5" as="sourcePoint" />
            <mxPoint x="912" y="203.5" as="targetPoint" />
          </mxGeometry>
        </mxCell>
        <mxCell id="1Ixk-NZFv9qU1EKzr9T6-49" value="" style="shape=flexArrow;endArrow=classic;startArrow=classic;html=1;" edge="1" parent="1" source="1Ixk-NZFv9qU1EKzr9T6-47" target="1Ixk-NZFv9qU1EKzr9T6-45">
          <mxGeometry width="100" height="100" relative="1" as="geometry">
            <mxPoint x="812" y="303.5" as="sourcePoint" />
            <mxPoint x="912" y="283.5" as="targetPoint" />
          </mxGeometry>
        </mxCell>
        <mxCell id="1Ixk-NZFv9qU1EKzr9T6-50" value="" style="shape=flexArrow;endArrow=classic;startArrow=classic;html=1;" edge="1" parent="1" source="1Ixk-NZFv9qU1EKzr9T6-43" target="1Ixk-NZFv9qU1EKzr9T6-47">
          <mxGeometry width="100" height="100" relative="1" as="geometry">
            <mxPoint x="812" y="383.5" as="sourcePoint" />
            <mxPoint x="912" y="283.5" as="targetPoint" />
          </mxGeometry>
        </mxCell>
        <mxCell id="1Ixk-NZFv9qU1EKzr9T6-51" value="" style="shape=flexArrow;endArrow=classic;startArrow=classic;html=1;" edge="1" parent="1" source="1Ixk-NZFv9qU1EKzr9T6-47" target="1Ixk-NZFv9qU1EKzr9T6-42">
          <mxGeometry width="100" height="100" relative="1" as="geometry">
            <mxPoint x="812" y="383.5" as="sourcePoint" />
            <mxPoint x="672" y="253.5" as="targetPoint" />
          </mxGeometry>
        </mxCell>
        <mxCell id="1Ixk-NZFv9qU1EKzr9T6-52" value="" style="shape=flexArrow;endArrow=classic;startArrow=classic;html=1;fillColor=#d5e8d4;strokeColor=#82b366;" edge="1" parent="1" source="1Ixk-NZFv9qU1EKzr9T6-43" target="1Ixk-NZFv9qU1EKzr9T6-42">
          <mxGeometry width="100" height="100" relative="1" as="geometry">
            <mxPoint x="812" y="383.5" as="sourcePoint" />
            <mxPoint x="622" y="273.5" as="targetPoint" />
          </mxGeometry>
        </mxCell>
        <mxCell id="1Ixk-NZFv9qU1EKzr9T6-53" value="" style="shape=flexArrow;endArrow=classic;startArrow=classic;html=1;fillColor=#d5e8d4;strokeColor=#82b366;" edge="1" parent="1" source="1Ixk-NZFv9qU1EKzr9T6-45" target="1Ixk-NZFv9qU1EKzr9T6-44">
          <mxGeometry width="100" height="100" relative="1" as="geometry">
            <mxPoint x="812" y="383.5" as="sourcePoint" />
            <mxPoint x="912" y="283.5" as="targetPoint" />
          </mxGeometry>
        </mxCell>
        <mxCell id="1Ixk-NZFv9qU1EKzr9T6-54" value="" style="shape=image;html=1;verticalAlign=top;verticalLabelPosition=bottom;labelBackgroundColor=#ffffff;imageAspect=0;aspect=fixed;image=https://cdn3.iconfinder.com/data/icons/geek-3/24/R2D2_star_wars_droid_robot-128.png" vertex="1" parent="1">
          <mxGeometry x="908" y="386" width="48" height="48" as="geometry" />
        </mxCell>
        <mxCell id="1Ixk-NZFv9qU1EKzr9T6-55" value="" style="ellipse;whiteSpace=wrap;html=1;aspect=fixed;fillColor=#d5e8d4;strokeColor=#82b366;" vertex="1" parent="1">
          <mxGeometry x="686" y="483.5" width="80" height="80" as="geometry" />
        </mxCell>
        <mxCell id="1Ixk-NZFv9qU1EKzr9T6-56" value="" style="ellipse;whiteSpace=wrap;html=1;aspect=fixed;fillColor=#d5e8d4;strokeColor=#82b366;" vertex="1" parent="1">
          <mxGeometry x="828" y="483.5" width="80" height="80" as="geometry" />
        </mxCell>
        <mxCell id="1Ixk-NZFv9qU1EKzr9T6-57" value="" style="shape=flexArrow;endArrow=classic;startArrow=classic;html=1;fillColor=#d5e8d4;strokeColor=#82b366;" edge="1" parent="1" source="1Ixk-NZFv9qU1EKzr9T6-55" target="1Ixk-NZFv9qU1EKzr9T6-43">
          <mxGeometry width="100" height="100" relative="1" as="geometry">
            <mxPoint x="812" y="383.5" as="sourcePoint" />
            <mxPoint x="912" y="283.5" as="targetPoint" />
          </mxGeometry>
        </mxCell>
        <mxCell id="1Ixk-NZFv9qU1EKzr9T6-58" value="" style="shape=flexArrow;endArrow=classic;startArrow=classic;html=1;fillColor=#d5e8d4;strokeColor=#82b366;" edge="1" parent="1" source="1Ixk-NZFv9qU1EKzr9T6-56" target="1Ixk-NZFv9qU1EKzr9T6-45">
          <mxGeometry width="100" height="100" relative="1" as="geometry">
            <mxPoint x="812" y="383.5" as="sourcePoint" />
            <mxPoint x="912" y="283.5" as="targetPoint" />
          </mxGeometry>
        </mxCell>
        <mxCell id="1Ixk-NZFv9qU1EKzr9T6-59" value="" style="shape=flexArrow;endArrow=classic;startArrow=classic;html=1;fillColor=#d5e8d4;strokeColor=#82b366;" edge="1" parent="1" source="1Ixk-NZFv9qU1EKzr9T6-55" target="1Ixk-NZFv9qU1EKzr9T6-56">
          <mxGeometry width="100" height="100" relative="1" as="geometry">
            <mxPoint x="812" y="383.5" as="sourcePoint" />
            <mxPoint x="912" y="283.5" as="targetPoint" />
          </mxGeometry>
        </mxCell>
        <mxCell id="1Ixk-NZFv9qU1EKzr9T6-60" value="&lt;span style=&quot;font-size: 18px&quot;&gt;State 2&lt;/span&gt;" style="text;html=1;align=center;verticalAlign=middle;resizable=0;points=[];autosize=1;strokeColor=none;" vertex="1" parent="1">
          <mxGeometry x="755" y="100.5" width="67" height="20" as="geometry" />
        </mxCell>
        <mxCell id="1Ixk-NZFv9qU1EKzr9T6-61" value="&lt;font style=&quot;font-size: 16px&quot;&gt;Rest of the Map&lt;/font&gt;" style="ellipse;shape=cloud;whiteSpace=wrap;html=1;" vertex="1" parent="1">
          <mxGeometry x="693.5" y="602.5" width="190" height="117" as="geometry" />
        </mxCell>
        <mxCell id="1Ixk-NZFv9qU1EKzr9T6-62" value="" style="shape=flexArrow;endArrow=classic;startArrow=classic;html=1;" edge="1" parent="1" source="1Ixk-NZFv9qU1EKzr9T6-61" target="1Ixk-NZFv9qU1EKzr9T6-56">
          <mxGeometry width="100" height="100" relative="1" as="geometry">
            <mxPoint x="938" y="403.5" as="sourcePoint" />
            <mxPoint x="903" y="608.5" as="targetPoint" />
          </mxGeometry>
        </mxCell>
      </root>
    </mxGraphModel>
  </diagram>
</mxfile>
